<svg xmlns="http://www.w3.org/2000/svg" xmlns:xlink="http://www.w3.org/1999/xlink" xml:space="preserve" viewBox="0 0 64 64"><defs><linearGradient id="a"><stop offset="0" style="stop-color:#ffb400;stop-opacity:1"/><stop offset="1" style="stop-color:#ff8e00;stop-opacity:1"/></linearGradient><linearGradient xlink:href="#a" id="b" x1="14.106" x2="49.894" y1="5.471" y2="58.529" gradientUnits="userSpaceOnUse"/></defs><path fill="#FF8700" d="M0 0h64v64H0z" style="fill:url(#b);fill-opacity:1"/><path d="M52.375 15.991v4.366c0 4.02-9.123 7.277-20.375 7.277s-20.375-3.256-20.375-7.277v-4.366c0-4.02 9.123-7.277 20.375-7.277s20.375 3.257 20.375 7.277zM47.39 28.243c1.892-.673 3.63-1.537 4.985-2.601v9.269c0 4.02-9.123 7.276-20.375 7.276s-20.375-3.256-20.375-7.276v-9.27c1.355 1.074 3.093 1.93 4.985 2.602 4.084 1.456 9.523 2.302 15.39 2.302 5.867 0 11.306-.846 15.39-2.302zM11.625 40.195c1.355 1.074 3.093 1.929 4.985 2.602 4.084 1.455 9.523 2.301 15.39 2.301 5.867 0 11.306-.846 15.39-2.301 1.892-.673 3.63-1.537 4.985-2.602v7.814c0 4.02-9.123 7.277-20.375 7.277s-20.375-3.257-20.375-7.277z" style="fill:#fff;stroke-width:.0909595"/><path d="m50.445 9.375-4.163 1.557a.848.848 0 0 0 0 1.59l4.163 1.557 1.557 4.163a.848.848 0 0 0 1.59 0l1.558-4.163 4.163-1.557a.848.848 0 0 0 0-1.59L55.15 9.375 53.593 5.21a.848.848 0 0 0-1.59 0zM2.791 17.438a1.278 1.278 0 0 0-.828 1.193c0 .53.33 1.005.828 1.192l6.24 2.342 2.34 6.239c.188.497.663.828 1.193.828s1.005-.331 1.193-.828l2.34-6.24 6.24-2.34c.497-.188.828-.663.828-1.193s-.33-1.005-.828-1.193l-6.24-2.341-2.34-6.24a1.278 1.278 0 0 0-1.193-.828c-.53 0-1.005.332-1.193.828l-2.34 6.24Zm38.224 31.025a1.278 1.278 0 0 0-.829 1.193c0 .53.332 1.005.829 1.192l6.24 2.341 2.34 6.24c.188.497.663.828 1.193.828s1.005-.331 1.193-.828l2.34-6.24 6.24-2.34c.497-.188.828-.663.828-1.193s-.331-1.005-.828-1.193l-6.24-2.341-2.34-6.24a1.278 1.278 0 0 0-1.193-.828c-.53 0-1.005.332-1.193.828l-2.34 6.24z" style="display:inline;fill:#fff;fill-opacity:1;stroke:#e68a00;stroke-width:1.41;stroke-linecap:butt;stroke-linejoin:miter;stroke-dasharray:none;stroke-opacity:1"/></svg>
